<?xml version="1.0" encoding="utf-8"?>
<!-- Generator: Adobe Illustrator 19.1.0, SVG Export Plug-In . SVG Version: 6.00 Build 0)  -->
<svg version="1.1" id="Layer_1" xmlns="http://www.w3.org/2000/svg" xmlns:xlink="http://www.w3.org/1999/xlink" x="0px" y="0px"
	 viewBox="0 0 198.5 277.4" style="enable-background:new 0 0 198.5 277.4;" xml:space="preserve">
<style type="text/css">
	.st0{fill:#FFFFFF;}
	.st1{fill:#A2A0A0;}
	.st2{fill:#EAEAE8;}
	.st3{fill:#DBD8D4;}
	.st4{fill:#C1C0C0;}
	.st5{fill:#F5F1EA;}
	.st6{fill:#E4AC2E;}
	.st7{fill:#F0B827;}
	.st8{fill:#0B9C8B;}
	.st9{fill:#12B3A5;}
</style>
<g>
	<polygon class="st0" points="0,0 0,267.9 198.5,267.9 198.5,54.2 144.8,0.5 	"/>
	<polygon class="st1" points="198.5,54.2 144.8,0.5 144.8,54.5 	"/>
	<polygon class="st2" points="151.8,54.5 198.5,108.1 198.5,54.2 	"/>
	<rect x="18.8" y="81.2" class="st3" width="133" height="5.2"/>
	<rect x="18.8" y="94.6" class="st3" width="133" height="5.2"/>
	<rect x="18.8" y="108.1" class="st3" width="133" height="5.2"/>
	<rect x="18.8" y="121.5" class="st3" width="133" height="5.2"/>
	<rect x="18.8" y="134.9" class="st3" width="133" height="5.2"/>
	<rect x="18.8" y="148.4" class="st3" width="133" height="5.2"/>
	<rect x="18.8" y="161.9" class="st3" width="133" height="5.2"/>
	<rect x="18.8" y="175.3" class="st3" width="133" height="5.2"/>
	<rect x="18.8" y="188.8" class="st3" width="133" height="5.2"/>
	<rect x="18.8" y="202.2" class="st3" width="133" height="5.2"/>
	<rect x="18.8" y="215.7" class="st3" width="133" height="5.2"/>
	<rect x="18.8" y="229.1" class="st3" width="133" height="5.2"/>
	<rect x="18.8" y="242.6" class="st3" width="133" height="5.2"/>
	<rect x="18.8" y="18.2" class="st4" width="79.9" height="25.9"/>
	<g>
		<path class="st5" d="M40.6,272.1l0.7,5.1l0.1,0.2l1.6-6c-0.7,0.3-1.4,0.6-2.2,0.7C40.8,272.1,40.7,272.1,40.6,272.1z"/>
		<path class="st5" d="M38.6,272l2.8,5.1l-0.7-5.1C39.9,272.2,39.3,272.1,38.6,272z"/>
		<path class="st6" d="M40.5,271l-3-20.3l-13.4,2l-0.1-0.6c0,0.2,0,0.4,0.1,0.6c1.3,8.6,7.7,18.3,14.5,19.4l-0.4-0.7L40.5,271z"/>
		<path class="st7" d="M37.5,250.7l3,20.3l2.8-0.4l-0.2,0.8c6.2-3,9.6-14.2,8.3-22.8c0-0.2-0.1-0.4-0.1-0.5l0.1,0.6L37.5,250.7z"/>
		<path class="st7" d="M40.5,271l0.2,1.1c0.1,0,0.2,0,0.3,0c0.8-0.1,1.5-0.3,2.2-0.7l0.2-0.8L40.5,271z"/>
		<path class="st7" d="M40.5,271l-2.3,0.3l0.4,0.7c0.7,0.1,1.4,0.1,2.1,0.1L40.5,271z"/>
		<path class="st6" d="M17.6,115.6L15.7,103C8.3,104.2,3,110.3,4,116.8c0.1,0.4,0.1,0.8,0.2,1.2l0-0.3L17.6,115.6z"/>
		<path class="st7" d="M31.5,113.6l0,0.3c0-0.4,0-0.8-0.1-1.2c-1-6.5-7.9-10.9-15.4-9.8c-0.1,0-0.2,0-0.3,0l1.9,12.6L31.5,113.6z"/>
		<path class="st8" d="M25.6,241l-3.1,0.5c0,0-0.1,0-0.1,0l0.1,0.7c0,0,0.1,0,0.1,0l2.7-0.4l10.6-1.6l-0.1-0.7L25.6,241z"/>
		<path class="st9" d="M49.6,237.4l-3.1,0.5l-10.7,1.6l0.1,0.7l11.1-1.6l2.7-0.4c0,0,0.1,0,0.1,0L49.6,237.4
			C49.7,237.4,49.7,237.4,49.6,237.4z"/>
		<path class="st8" d="M24.6,243.8l-1.7,0.2c0,0-0.1,0-0.1,0l1.2,8l0.1,0.6l13.4-2l-1.3-8.6L24.6,243.8z"/>
		<path class="st9" d="M50,240.1l-1.7,0.2l-12.2,1.8l1.3,8.6l13.9-2.1l-0.1-0.6L50,240.1C50.1,240.1,50.1,240.1,50,240.1z"/>
		<path class="st9" d="M32.3,123.3l-6.7,1l-6.7,1l0.2,1.4l15.7,106.6l0.6,4.2l9.2-1.4l4.6-0.7c0,0,0.1,0,0.1,0L32.9,123.1
			C32.7,123.2,32.5,123.2,32.3,123.3z"/>
		<path class="st8" d="M4.2,117.6l0,0.3l0.8,5.3c0.2-0.1,0.3-0.1,0.5-0.2l1.5-0.2l11.3-1.7l-0.8-5.5L4.2,117.6z"/>
		<path class="st9" d="M17.6,115.6l0.8,5.5l11.8-1.7l1.5-0.2c0.2,0,0.4,0,0.6,0l-0.8-5.3l0-0.3L17.6,115.6z"/>
		<path class="st8" d="M12.8,126.2l-6.7,1c-0.2,0-0.4,0-0.6,0l16.6,112.4c0,0,0.1,0,0.1,0l4.6-0.7l8.7-1.3l-0.6-4.2L19.2,126.6
			l-0.2-1.4L12.8,126.2z"/>
		<path class="st6" d="M7.1,122.8L5.5,123c-0.2,0-0.4,0.1-0.5,0.2c-0.8,0.4-1.4,1.2-1.2,2.2c0.1,0.9,0.9,1.6,1.8,1.8
			c0.2,0,0.4,0,0.6,0l6.7-1l6.2-0.9l-0.6-4.1L7.1,122.8z"/>
		<path class="st7" d="M33.2,119.5c-0.3-0.2-0.6-0.3-0.9-0.3c-0.2,0-0.4,0-0.6,0l-1.5,0.2l-11.8,1.7l0.6,4.1l6.7-1l6.7-1
			c0.2,0,0.4-0.1,0.5-0.2c0.4-0.2,0.7-0.5,0.9-0.9l3.6-0.5l5.5,37.5c-2.6,0.4-4.3,3.1-3.8,6.1c0.4,3,2.9,5,5.4,4.7l0,0l2.8-0.4
			l-7.5-51L33.2,119.5z"/>
		<path class="st7" d="M49.4,235.5C49.4,235.5,49.4,235.5,49.4,235.5l-4.7,0.7l-9.2,1.4l0.3,2l10.7-1.6l3.1-0.5c0,0,0.1,0,0.1,0
			c0.5-0.1,0.8-0.6,0.8-1.1C50.4,235.8,49.9,235.4,49.4,235.5z"/>
		<path class="st6" d="M26.9,238.8l-4.6,0.7c0,0-0.1,0-0.1,0c-0.5,0.1-0.8,0.6-0.8,1.1c0.1,0.5,0.5,0.9,1,0.8c0,0,0.1,0,0.1,0
			l3.1-0.5l10.2-1.5l-0.3-2L26.9,238.8z"/>
		<path class="st7" d="M49.8,238.1C49.8,238.1,49.8,238.1,49.8,238.1l-2.8,0.4l-11.1,1.6l0.3,2l12.2-1.8l1.7-0.2c0,0,0.1,0,0.1,0
			c0.5-0.1,0.8-0.6,0.8-1.1C50.8,238.4,50.3,238.1,49.8,238.1z"/>
		<path class="st6" d="M25.3,241.7l-2.7,0.4c0,0-0.1,0-0.1,0c-0.5,0.1-0.8,0.6-0.8,1.1c0.1,0.5,0.5,0.9,1,0.8c0,0,0.1,0,0.1,0
			l1.7-0.2l11.6-1.7l-0.3-2L25.3,241.7z"/>
	</g>
</g>
</svg>
