<?xml version="1.0" encoding="utf-8"?>
<!-- Generator: Adobe Illustrator 22.0.0, SVG Export Plug-In . SVG Version: 6.00 Build 0)  -->
<svg version="1.1" id="Layer_1" xmlns="http://www.w3.org/2000/svg" xmlns:xlink="http://www.w3.org/1999/xlink" x="0px" y="0px"
	 viewBox="0 0 131 131" style="enable-background:new 0 0 131 131;" xml:space="preserve">
<style type="text/css">
	.st0{fill:#404041;}
	.st1{fill:#FFF100;}
	.st2{fill:#FFBC00;}
	.st3{enable-background:new    ;}
	.st4{font-family:'AzoSans-Bold';}
	.st5{font-size:7.7742px;}
</style>
<title>Asset 14</title>
<g>
	<g>
		<g>
			<rect class="st0" width="131" height="131"/>
		</g>
		<polygon class="st1" points="42.1,31.1 30.3,35.6 30.3,39.2 30.3,47 37.6,51.8 38.1,61 35,64.1 30.3,67.1 29.6,76.9 33.5,80.4 
			33.8,92.5 47.6,97.7 70.7,99.5 92.5,96.7 102.6,92.5 102.6,81.9 97.5,78.7 98.5,74.7 98.5,66.5 106.6,63.2 106.6,52.8 99.1,48.2 
			97.9,35.9 84.5,31.1 		"/>
		<polygon class="st2" points="30.3,38.9 45.6,44.1 68.5,44.8 92.8,41.4 98,38.3 98.5,47.4 85.2,52.8 66.7,54.1 44,52.2 30.3,47.7 
					"/>
		<polygon class="st2" points="38.3,55 53.5,60.3 76.4,60.9 100.7,57.6 105.9,54.5 106.4,63.6 93.2,68.9 74.6,70.3 51.9,68.4 
			38.3,63.8 		"/>
		<polygon class="st2" points="29.6,69.2 44.8,74.4 67.7,75.1 92,71.7 97.2,68.6 97.7,77.8 84.5,83.1 65.9,84.4 43.2,82.5 29.6,78 
					"/>
		<polygon class="st2" points="34,83.7 49.2,88.9 72.2,89.6 96.4,86.3 101.6,83.2 102.1,92.3 88.9,97.6 70.3,98.9 47.7,97.1 
			34,92.5 		"/>
		<path d="M107.7,52.8c-0.1-2.3-2.8-4-8.2-5.4c0.2-0.4,0.3-0.8,0.3-1.2v-9.3h0C99.3,29.2,67.7,29,64.1,29c-3.6,0-35.2,0.2-35.7,7.9
			h0v0.2l0,0l0,0v9.1c0,2.5,3.2,4.5,8.1,5.9c-0.1,0.2-0.1,0.4-0.1,0.7h0v0.2l0,0l0,0V62c-5.2,1.3-7.8,3.1-7.9,5.3h0v0.2l0,0l0,0v9.1
			c0,1.7,1.6,3.2,4.2,4.5c-0.1,0.3-0.2,0.5-0.2,0.8h0V82l0,0l0,0v9.1c0,4.4,9.9,7.1,20.9,8.4c0.1,0,0.2,0,0.2,0c0,0,0,0,0.1,0
			c2.1,0.2,4.3,0.4,6.4,0.6c0,0,0.1,0,0.1,0c0,0,0,0,0.1,0c2.7,0.2,5.4,0.2,7.9,0.2c2.5,0,5.2-0.1,7.9-0.2c0,0,0,0,0.1,0
			c0,0,0.1,0,0.1,0c2.1-0.1,4.3-0.3,6.4-0.6c0,0,0,0,0.1,0c0.1,0,0.2,0,0.2,0c11-1.3,20.9-4,20.9-8.4v-9.3h0c-0.1-1.6-1.5-3-4.2-4.1
			c0.2-0.4,0.3-0.8,0.3-1.2v-8.6c4.7-1.5,7.9-3.4,7.9-5.9L107.7,52.8L107.7,52.8z M97,77l-0.5,0.4c-0.7,0.6-1.9,1.2-3.4,1.8v-6.3
			c1.6-0.5,2.9-1.2,4-1.8v5.5C97.1,76.7,97.1,76.8,97,77z M67.4,83.1c-0.2,0-0.4,0-0.6,0c-0.5,0-1,0-1.4,0v-6.6c0.4,0,0.7,0,1.1,0
			c0.1,0,0.1,0,0.2,0c1.3,0,2.7-0.1,4-0.1V83c-0.3,0-0.6,0-0.9,0C69.1,83.1,68.2,83.1,67.4,83.1z M61.7,83.2c-0.6,0-1.2,0-1.8,0
			c-0.1,0-0.1,0-0.2,0c-0.7,0-1.4-0.1-2.1-0.1v-6.6c1.3,0.1,2.7,0.1,4,0.1c0.1,0,0.1,0,0.2,0c0.4,0,0.7,0,1.1,0v6.6
			c-0.3,0-0.5,0-0.8,0C61.9,83.2,61.8,83.2,61.7,83.2z M37.8,80.1c0,0-0.1,0-0.1,0v-6.4c1.2,0.3,2.6,0.6,4,0.9v6.5
			c-1.2-0.3-2.3-0.5-3.4-0.8C38.1,80.2,37.9,80.2,37.8,80.1z M65.6,91.1c0.4,0,0.7,0,1.1,0v6.6c-1.8,0-3.6-0.1-5.3-0.2V91
			c1.3,0.1,2.7,0.1,4,0.1C65.5,91.1,65.6,91.1,65.6,91.1z M70.7,91.1c1.3,0,2.7-0.1,4-0.1v6.6c-1.7,0.1-3.5,0.1-5.3,0.2v-6.6
			c0.4,0,0.7,0,1.1,0C70.5,91.1,70.6,91.1,70.7,91.1z M81.3,90.5v6.6c-1.3,0.1-2.6,0.3-4,0.3v-6.6C78.7,90.7,80,90.6,81.3,90.5z
			 M83.9,90.2c1.4-0.2,2.7-0.4,4-0.6v6.5c-1.2,0.2-2.6,0.4-4,0.6V90.2z M90.5,89.2c1.4-0.3,2.7-0.6,4-0.9v6.4c-1.2,0.3-2.5,0.7-4,1
			V89.2z M45.6,89.2v6.5c-1.5-0.3-2.8-0.6-4-1v-6.4C42.8,88.6,44.2,88.9,45.6,89.2z M48.2,89.7c1.3,0.2,2.6,0.4,4,0.6v6.5
			c-1.4-0.2-2.7-0.4-4-0.6V89.7z M54.8,90.5c1.3,0.1,2.6,0.2,4,0.3v6.6c-1.4-0.1-2.7-0.2-4-0.3V90.5z M51.6,82.6c-0.1,0-0.3,0-0.4,0
			c-0.1,0-0.2,0-0.3,0V76c1.3,0.1,2.6,0.2,4,0.3v6.6C53.7,82.8,52.6,82.7,51.6,82.6z M48.2,75.7v6.5c-1.4-0.2-2.7-0.4-4-0.6v-6.5
			C45.5,75.3,46.9,75.5,48.2,75.7z M74.2,82.8c-0.3,0-0.6,0-0.9,0.1v-6.6c1.3-0.1,2.7-0.2,4-0.3v6.6c-0.8,0.1-1.7,0.2-2.5,0.2
			C74.6,82.8,74.4,82.8,74.2,82.8z M80,82.2v-6.5c1.4-0.2,2.7-0.4,4-0.6v6.5C82.7,81.8,81.4,82,80,82.2z M86.6,74.6
			c1.4-0.3,2.7-0.6,4-0.9v6.4c-1.2,0.3-2.5,0.7-4,1V74.6z M68.5,68.6c-1,0-2-0.1-2.9-0.1c-0.1,0-0.1,0-0.2,0v-6.6
			c1.3,0.1,2.7,0.1,4,0.1c0.1,0,0.1,0,0.2,0c0.4,0,0.7,0,1.1,0v6.6c-0.6,0-1.3,0-1.9,0C68.7,68.6,68.6,68.6,68.5,68.6z M37.6,49.7
			v-6.4c1.2,0.3,2.6,0.6,4,0.9v6.5c-0.2,0-0.3-0.1-0.5-0.1c-0.7-0.2-1.4-0.3-2-0.5C38.6,50,38.1,49.8,37.6,49.7z M61.7,46.1
			c0.4,0,0.7,0,1.1,0v6.6c-1.8,0-3.5-0.1-5.3-0.2V46c1.3,0.1,2.7,0.1,4,0.1C61.5,46.1,61.6,46.1,61.7,46.1z M66.7,46.1
			c1.3,0,2.7-0.1,4-0.1v6.6c-0.2,0-0.4,0-0.7,0c0,0,0,0-0.1,0c-0.9,0-1.8,0.1-2.7,0.1c-0.1,0-0.3,0-0.4,0c-0.5,0-1,0-1.4,0v-6.6
			c0.4,0,0.7,0,1.1,0C66.6,46.1,66.6,46.1,66.7,46.1z M96.8,46.8L96.8,46.8l-0.5,0.4c-0.7,0.5-1.8,1.1-3.1,1.6v-6.3
			c1.6-0.5,2.9-1.2,4-1.8v5.5C97.1,46.4,97,46.6,96.8,46.8z M80,51.8v-6.5c1.4-0.2,2.7-0.4,4-0.6v6.5C82.7,51.4,81.3,51.6,80,51.8z
			 M86.6,50.7v-6.4c1.4-0.3,2.7-0.6,4-0.9v6.4C89.3,50,88,50.4,86.6,50.7z M77.3,45.5v6.6c-1.3,0.1-2.6,0.3-4,0.4v-6.6
			C74.7,45.8,76,45.7,77.3,45.5z M50.9,52.1v-6.6c1.3,0.1,2.6,0.2,4,0.3v6.6C53.5,52.3,52.2,52.2,50.9,52.1z M48.2,45.3v6.5
			c-0.3,0-0.5-0.1-0.8-0.1c-0.2,0-0.3,0-0.5-0.1c-0.8-0.1-1.5-0.2-2.2-0.4c-0.1,0-0.3-0.1-0.4-0.1v-6.5
			C45.5,44.9,46.9,45.1,48.2,45.3z M62.4,68.3c-0.2,0-0.4,0-0.5,0c-0.8-0.1-1.7-0.1-2.5-0.2c-0.2,0-0.3,0-0.5-0.1c0,0-0.1,0-0.1,0
			v-6.6c1.3,0.1,2.6,0.2,4,0.3v6.6C62.7,68.3,62.5,68.3,62.4,68.3z M53.7,67.3c-0.5-0.1-1-0.2-1.5-0.3v-6.5c1.3,0.2,2.6,0.4,4,0.6
			v6.5C55.3,67.6,54.6,67.4,53.7,67.3C53.8,67.3,53.7,67.3,53.7,67.3z M49.5,60.1v6.4c-1.5-0.3-2.8-0.6-4-1v-6.4
			C46.8,59.5,48.1,59.8,49.5,60.1z M42.9,58.4v6.3c-2.1-0.8-3.4-1.6-3.9-2.4L39,62.2c0,0,0-0.1,0-0.1v-5.5
			C40,57.2,41.4,57.8,42.9,58.4z M74.6,62c1.3,0,2.7-0.1,4-0.1v6.6c-1.7,0.1-3.5,0.1-5.3,0.2V62c0.4,0,0.7,0,1.1,0
			C74.5,62,74.6,62,74.6,62z M91.7,67.1c-0.6,0.1-1.2,0.2-1.8,0.3c-0.3,0.1-0.7,0.1-1.1,0.2c-0.3,0-0.7,0.1-1,0.1v-6.5
			c1.4-0.2,2.7-0.4,4-0.6v6.5C91.8,67.1,91.8,67.1,91.7,67.1z M82.8,68.2c-0.5,0-1,0.1-1.5,0.1v-6.6c1.3-0.1,2.7-0.2,4-0.3V68
			c-0.8,0.1-1.5,0.2-2.3,0.2C82.9,68.2,82.8,68.2,82.8,68.2z M97.9,65.7c-0.7,0.2-1.4,0.4-2.1,0.5c-0.3,0.1-0.7,0.2-1,0.2
			c-0.1,0-0.2,0-0.3,0.1v-6.5c1.4-0.3,2.7-0.6,4-0.9v6.4C98.3,65.6,98.1,65.7,97.9,65.7z M105.1,52.9c-0.1,0.9-2.2,2.1-5.8,3.2l0,0
			c-4.7,1.4-12,2.8-21.3,3.2c-0.5,0-0.9,0-1.4,0.1c-0.4,0-0.8,0-1.2,0c-1.1,0-2.2,0-3.4,0c-1.1,0-2.3,0-3.4,0c-0.4,0-0.8,0-1.2,0
			c-0.5,0-1,0-1.4-0.1c-9.3-0.4-16.6-1.7-21.3-3.2l0,0c-3.6-1.1-5.6-2.3-5.8-3.2c0,0,0,0,0-0.1c0.1,0,0.2,0,0.3,0.1
			c0.5,0.1,1,0.2,1.6,0.4c2.6,0.6,5.5,1,8.6,1.4c0,0,0,0,0,0c0,0,0,0,0,0c2.1,0.2,4.3,0.4,6.6,0.6c0,0,0,0,0,0c0,0,0,0,0,0
			c1.6,0.1,3.3,0.2,4.9,0.2c1,0,2,0,3,0c0.7,0,1.4,0,2.1,0c9.6-0.1,18.5-1.3,24.7-3.1c0.3-0.1,0.6-0.2,0.8-0.2
			c0.2-0.1,0.3-0.1,0.5-0.2c0.5-0.2,0.9-0.3,1.4-0.5c0.1,0,0.1-0.1,0.2-0.1c0.4-0.1,0.7-0.3,1.1-0.4c0.1,0,0.2-0.1,0.3-0.1
			c0.4-0.2,0.7-0.3,1-0.5c0.1-0.1,0.3-0.2,0.4-0.2c0.2-0.1,0.3-0.2,0.5-0.3c0.1-0.1,0.2-0.1,0.3-0.2
			C103.4,50.9,104.9,52.3,105.1,52.9z M64.1,31.6c21.8,0,32.8,3.4,33,5.4c-0.2,0.9-2.2,2.1-5.8,3.2l0,0c-4.7,1.4-12,2.8-21.3,3.2
			c-0.5,0-0.9,0-1.4,0.1c-0.4,0-0.8,0-1.2,0c-1.1,0-2.2,0-3.4,0s-2.3,0-3.4,0c-0.4,0-0.8,0-1.2,0c-0.5,0-1,0-1.4-0.1
			c-9.3-0.4-16.6-1.7-21.3-3.2l0,0c-3.6-1.1-5.6-2.3-5.8-3.2C31.3,35.1,42.3,31.6,64.1,31.6z M31,46.2v-5.5c1.1,0.7,2.4,1.3,4,1.8
			v6.3C32.4,47.9,31,46.9,31,46.2z M37.4,64.5C37.5,64.5,37.5,64.5,37.4,64.5c1.9,1.9,5.6,3.3,10.3,4.4c0.1,0,0.2,0,0.3,0.1
			c0.3,0.1,0.7,0.2,1,0.2c4.3,0.9,9.4,1.6,15,1.9c0,0,0,0,0,0c0,0,0,0,0,0c1.8,0.1,3.6,0.2,5.5,0.2c0.8,0,1.6,0,2.4,0
			c0.9,0,1.8,0,2.8,0c1.7,0,3.4-0.1,5.1-0.2c0,0,0,0,0,0c0,0,0,0,0,0c5.6-0.3,10.8-1,15.3-2c-1,0.5-2.3,1-3.9,1.5l0,0
			c-4.9,1.5-12.8,2.9-22.8,3.2c-0.3,0-0.6,0-0.9,0c-0.3,0-0.7,0-1,0c-0.8,0-1.7,0-2.5,0c-1.1,0-2.3,0-3.4,0c-0.4,0-0.8,0-1.2,0
			c-0.5,0-1,0-1.4-0.1c-9.3-0.4-16.6-1.7-21.3-3.2l0,0c-3.6-1.1-5.7-2.3-5.8-3.2C31.2,66.9,32.5,65.7,37.4,64.5z M31,76.6v-5.5
			c1.1,0.7,2.4,1.3,4,1.8v6.3l-0.8-0.3l0,0C32.2,78.1,31,77.2,31,76.6z M35,91.1v-5.5c1.1,0.7,2.4,1.3,4,1.8v6.3
			C36.4,92.8,35,91.9,35,91.1z M97.1,93.8v-6.3c1.6-0.5,2.9-1.2,4-1.8v5.5C101.1,91.9,99.7,92.8,97.1,93.8z M101.1,82
			c-0.1,0.9-2.2,2.1-5.8,3.2l0,0c-4.7,1.4-12,2.8-21.3,3.2c-0.5,0-0.9,0-1.4,0.1c-0.4,0-0.8,0-1.2,0c-1.1,0-2.2,0-3.4,0
			s-2.3,0-3.4,0c-0.4,0-0.8,0-1.2,0c-0.5,0-1,0-1.4-0.1c-9.3-0.4-16.6-1.7-21.3-3.2l0,0c-3.5-1.1-5.5-2.2-5.8-3.1
			c0.4,0.1,0.8,0.3,1.2,0.4c0,0,0.1,0,0.1,0c0.4,0.1,0.7,0.2,1.1,0.3c0.1,0,0.3,0.1,0.4,0.1c0.2,0.1,0.4,0.1,0.6,0.2
			c4.8,1.2,11,2.1,17.6,2.5c0,0,0,0,0,0c0,0,0,0,0,0c2,0.1,4.1,0.2,6.3,0.2c0.6,0,1.1,0,1.7,0c0.7,0,1.5,0,2.2,0
			c1.9,0,3.8-0.1,5.7-0.2c0,0,0,0,0,0c0,0,0,0,0,0c2.3-0.1,4.5-0.3,6.6-0.6c0,0,0,0,0,0c0,0,0.1,0,0.1,0c2.3-0.3,4.6-0.6,6.6-1
			c0.4-0.1,0.8-0.2,1.3-0.2c0.1,0,0.2,0,0.3-0.1c3.9-0.8,7.3-1.8,9.6-3.1c0.1-0.1,0.2-0.1,0.4-0.2c0.1-0.1,0.3-0.2,0.4-0.3
			c0.1-0.1,0.3-0.2,0.4-0.2C100.3,80.8,101,81.6,101.1,82z M101.1,64.7v-6.3c1.6-0.5,2.9-1.2,4-1.8V62
			C105.1,62.8,103.7,63.7,101.1,64.7z"/>
	</g>
	<text transform="matrix(1 0 0 1 39.9814 114.003)" class="st3"><tspan x="0" y="0" class="st4 st5">BITS Business</tspan><tspan x="8.7" y="9.3" class="st4 st5">Conclave</tspan></text>
</g>
</svg>
