<svg xmlns="http://www.w3.org/2000/svg" viewBox="0 0 131 131">
  <title>Asset 16</title>
  <g id="10d59ac1-ecc1-48f3-a80b-1db0ba0e2e72" data-name="Layer 2">
    <g id="fa6c6183-afdf-48c3-bda4-c68397657386" data-name="Layer 1">
      <g>
        <g>
          <rect width="131" height="131" style="fill: #404041"/>
          <polygon points="61.264 92.611 59.775 98.111 71.225 97.777 70.093 92.611 65.544 83.531 61.264 92.611" style="fill: #4dbaf6"/>
          <polygon points="46.259 56.694 84.676 56.194 84.133 47.777 81.271 44.66 73.343 46.277 74.85 38.444 70.759 36.527 69.695 33.958 67.593 32.361 61.759 33.111 60.593 36.027 56.15 37.777 57.676 44.885 56.676 46.027 53.221 44.885 49.259 44.885 46.867 52.277 46.259 56.694" style="fill: #fced38"/>
          <polygon points="71.225 97.777 70.093 92.111 77.779 82.027 97.042 89.527 98.009 98.111 71.225 97.777" style="fill: #fff"/>
          <polygon points="59.085 97.777 60.218 92.111 52.532 82.027 33.269 89.527 32.301 98.111 59.085 97.777" style="fill: #fff"/>
          <polygon points="65.468 82.527 70.364 92.215 79.114 79.84 77.779 76.152 71.225 81.59 65.468 82.527" style="fill: #d8d8e4"/>
          <polygon points="65.325 82.527 60.429 92.215 51.679 79.84 53.014 76.152 59.567 81.59 65.325 82.527" style="fill: #d8d8e4"/>
          <polygon points="48.676 56.402 82.176 56.402 82.176 66.402 76.759 76.361 70.676 81.259 63.782 82.276 58.801 80.444 52.676 75.111 49.218 65.5 48.176 57.615 48.676 56.402" style="fill: #f9dbaf"/>
          <polygon points="75.676 38.194 73.343 46.277 81.271 44.111 79.114 40.444 75.676 38.194" style="fill: #d6c632"/>
          <polygon points="55.324 38.373 57.657 46.457 49.729 44.29 51.886 40.623 55.324 38.373" style="fill: #d6c632"/>
          <path d="M95.91513,87.8044c-6.72327-3.5653-11.88029-5.56449-16.47122-6.331l.4751-.6532a.87617.87617,0,0,0,.22534-.90122l-1.0557-4.22266a24.09821,24.09821,0,0,0,4.43511-13.57576v-4.506h3.37942a1.12643,1.12643,0,0,0,0-2.25285H85.77675V54.23533a19.58412,19.58412,0,0,0-14.64435-18.925v-.22547A3.38894,3.38894,0,0,0,67.753,31.70546H63.247a3.38894,3.38894,0,0,0-3.37941,3.37941v.22534a19.58411,19.58411,0,0,0-14.64435,18.925v1.12642H44.09682a1.12643,1.12643,0,0,0,0,2.25286h3.37942v4.506a24.099,24.099,0,0,0,4.43511,13.5759L50.85565,79.919a1.35442,1.35442,0,0,0,.22534.90122l.4751.6532c-4.59079.76661-9.74795,2.76567-16.47122,6.331a5.99108,5.99108,0,0,0-3.37941,5.5198v4.84391a1.06419,1.06419,0,0,0,1.12643,1.12643H98.16811a1.06419,1.06419,0,0,0,1.12643-1.12643V93.3242A6.45867,6.45867,0,0,0,95.91513,87.8044ZM64.82452,86.76172l.68192-1.53429,1.68367,3.7042,1.10119,2.47752H62.7966Zm-2.88418,6.90042H69.0512l.64367,3.37941H61.26446ZM77.32808,77.89136l.45055,2.02765-1.15072,1.58006a1.0038,1.0038,0,0,0-.201.22225l-4.68555,6.48773-1.48678,2.04147-3.0369-6.833a16.27534,16.27534,0,0,0,9.48785-4.88391c.029-.02872.05812-.05717.087-.08616l.02094-.02134Q77.07369,78.16494,77.32808,77.89136ZM75.86049,39.94449q.18764.12481.37176.25393a19.58644,19.58644,0,0,1,3.7995,3.67306l-5.18186,1.01383ZM56.15024,44.88531l-5.18185-1.01383a19.584,19.584,0,0,1,3.79962-3.6732q.18381-.129.37163-.25379Zm-8.674,9.34989a17.08535,17.08535,0,0,1,2.12052-8.29688l7.79265,1.53805h.22534A2.64932,2.64932,0,0,0,58.516,47.251a.90855.90855,0,0,0,.33794-1.01382l-1.5465-7.52651a18.684,18.684,0,0,1,2.56032-1.00524v3.01195a1.12643,1.12643,0,0,0,2.25286,0V35.08487A1.12871,1.12871,0,0,1,63.247,33.95845h4.506a1.12871,1.12871,0,0,1,1.12643,1.12642v5.6324a1.12643,1.12643,0,1,0,2.25285,0V37.70546a18.66769,18.66769,0,0,1,2.64193,1.044L72.25883,46.1246a1.57237,1.57237,0,0,0,.33794,1.01383,1.02247,1.02247,0,0,0,.78849.33794h.22534l7.74218-1.63a17.08393,17.08393,0,0,1,2.17085,8.38881v1.12642H47.47637V54.2352Zm2.253,3.37941H81.27078v4.506a20.754,20.754,0,0,1-4.21487,12.59469l-.06577.02187-.33794.33794a18.87705,18.87705,0,0,1-1.79,2.066,14.40161,14.40161,0,0,1-8.86459,4.11609,1.26944,1.26944,0,0,0-.49765-.099,1.07807,1.07807,0,0,0-.4692.10052,12.73685,12.73685,0,0,1-5.58623-1.6889,18.30032,18.30032,0,0,1-5.0969-4.4947l-.33795-.33794-.06576-.02188a20.75456,20.75456,0,0,1-4.21487-12.59469v-4.506ZM63.78238,83.41774l-3.03691,6.833-1.48678-2.04147-4.68555-6.48772c-.03583-.03583-.07556-.0714-.11663-.10643l-1.23514-1.696.45055-2.02765c.15273.16441.30761.32465.464.48235A16.34674,16.34674,0,0,0,63.78238,83.41774ZM33.95845,93.3242a3.86725,3.86725,0,0,1,2.14038-3.49215c7.18038-3.81466,12.34936-5.72917,16.95384-6.301L59.775,92.77407l-.85344,4.26735H33.95845Zm63.08324,3.71749h-24.963l-.85344-4.26735,6.79506-9.34318c4.58838.69239,9.84982,2.60542,16.881,6.28842a4.1679,4.1679,0,0,1,2.14039,3.60476Z"/>
        </g>
        <text transform="translate(54.64993 119.57165)" style="font-size: 10.47299861907959px;font-family: AzoSans-Bold, Azo Sans;font-weight: 700">Civil</text>
      </g>
    </g>
  </g>
</svg>
