<svg xmlns="http://www.w3.org/2000/svg" viewBox="0 0 131 131">
  <title>Asset 11</title>
  <g id="44b81ce5-c3ea-474b-8ffc-d0b1792758f3" data-name="Layer 2">
    <g id="7d598f44-cdbe-46be-a59c-41eb01aa4738" data-name="Layer 1">
      <g>
        <g>
          <rect width="131" height="131" style="fill: #404041"/>
          <g>
            <path d="M33.42,44.48209V84.28337A13.29131,13.29131,0,0,1,46.67238,71.031H95.36756A2.2118,2.2118,0,0,1,97.58,73.24344V33.42l-53.09788.02213C37.84485,33.42,33.42,37.84485,33.42,44.48209Z" style="fill: #2bb0af"/>
            <path d="M95.36756,71.031H46.67238A13.27449,13.27449,0,1,0,46.71663,97.58H95.36756a2.21241,2.21241,0,1,0,0-4.42482H46.71663a8.84968,8.84968,0,1,1-.04425-17.6993H95.36756a2.21241,2.21241,0,0,0,0-4.42482Z" style="fill: #efc95b"/>
            <path d="M37.84485,84.28337a8.89786,8.89786,0,0,0,8.87178,8.87178H95.3565c-6.48569-2.0487-6.47463-15.6506.01106-17.6993H46.67238A8.85348,8.85348,0,0,0,37.84485,84.28337Zm14.38068,4.447L48.90691,84.3055,45.5883,88.73032V79.88068h6.63723Z" style="fill: #e7e7e7"/>
            <polygon points="45.588 88.73 48.907 84.305 52.226 88.73 52.226 79.881 45.588 79.881 45.588 88.73" style="fill: #d6705a"/>
            <g>
              <path d="M44.48209,79.88068v8.84964a1.10609,1.10609,0,0,0,1.99117.66262l2.43365-3.2445,2.43366,3.2445a1.10657,1.10657,0,0,0,1.99117-.66262V79.88068a1.1052,1.1052,0,0,0-1.10621-1.10621H45.5883A1.10519,1.10519,0,0,0,44.48209,79.88068Zm2.21241,1.1062h4.42482V85.4117l-1.32744-1.76992a1.1062,1.1062,0,0,0-1.76993,0L46.6945,85.4117Z"/>
              <path d="M97.58,32.31383l-53.09788.02212h-.04978A11.51957,11.51957,0,0,0,32.31383,44.48209V84.28337a14.41946,14.41946,0,0,0,14.4028,14.4028H95.36756a3.31049,3.31049,0,0,0,.25442-6.61179c-2.77325-.93032-4.01884-4.55314-4.01884-7.76,0-3.21574,1.25-6.85074,4.03323-7.77995a3.31148,3.31148,0,0,0,3.0498-3.291V33.42a1.10658,1.10658,0,0,0-1.1062-1.1062ZM34.52624,44.48209a9.32025,9.32025,0,0,1,9.90718-9.93484h.04535l.00332-1.1062v1.1062l51.99167-.021V70.12836a3.28135,3.28135,0,0,0-1.1062-.20354H46.6945V40.05727H44.48209V70.10956a14.36372,14.36372,0,0,0-9.95585,6.551ZM89.39183,84.31545a11.94337,11.94337,0,0,0,2.46574,7.73349H46.71663a7.74347,7.74347,0,1,1-.04425-15.48688H91.86531A11.97029,11.97029,0,0,0,89.39183,84.31545Zm5.97573-9.9658H46.67238a9.95587,9.95587,0,1,0,.04425,19.9117H95.36756a1.10621,1.10621,0,0,1,0,2.21241H46.71663a12.16829,12.16829,0,0,1-.04425-24.33653H95.36756a1.10621,1.10621,0,0,1,0,2.21242Z"/>
              <rect x="64.39379" y="61.07518" width="2.21241" height="2.21241"/>
              <rect x="68.81862" y="61.07518" width="2.21241" height="2.21241"/>
              <rect x="73.24344" y="61.07518" width="2.21241" height="2.21241"/>
              <path d="M62.5055,54.11382l1.56417-1.56417-2.53652-2.53653,2.53652-2.53653L62.5055,45.91241,59.18688,49.231a1.105,1.105,0,0,0,0,1.56417Z"/>
              <rect x="65.58755" y="47.24079" width="10.88672" height="2.21235" transform="translate(-1.99611 93.62249) rotate(-66.03926)"/>
              <path d="M77.34415,54.11382l3.31861-3.31861a1.105,1.105,0,0,0,0-1.56418l-3.31861-3.31862L75.78,47.47659l2.53653,2.53653L75.78,52.54965Z"/>
            </g>
          </g>
        </g>
        <text transform="translate(47.82178 118.79706)" style="font-size: 10.47299861907959px;font-family: AzoSans-Bold, Azo Sans;font-weight: 700">Coding</text>
      </g>
    </g>
  </g>
</svg>
