<svg xmlns="http://www.w3.org/2000/svg" viewBox="0 0 131 131">
  <title>Asset 18</title>
  <g id="857250bc-ae1c-4bb3-a145-54db13fe1254" data-name="Layer 2">
    <g id="292261d2-1673-4db5-84a0-9b2e2e3e1429" data-name="Layer 1">
      <g>
        <g>
          <rect width="131" height="131" style="fill: #404041"/>
          <polygon points="58.052 91.364 50.177 83.695 54.114 77.973 60.677 73.555 63.802 79.179 82.052 79.179 91.552 61.614 96.779 61.614 99.362 64.18 87.677 86.739 76.927 91.364 76.677 87.239 72.77 84.739 68.802 84.239 58.052 91.364" style="fill: #d8d8e4"/>
          <polygon points="60.677 72.489 68.927 72.489 68.927 79.179 63.802 79.179 60.677 72.489" style="fill: #4dbaf6"/>
          <polygon points="68.927 72.489 68.927 79.179 75.418 79.179 76.427 75.046 74.77 72.617 70.121 72.325 68.927 72.489" style="fill: #d8d8e4"/>
          <polygon points="58.114 90.677 68.427 84.427 72.77 84.739 78.114 90.239 62.28 94.739 58.114 90.677" style="fill: #4dbaf6"/>
          <polygon points="33.552 38.926 33.052 41.577 34.578 42.625 35.177 46.287 33.052 47.737 35.177 52.739 38.51 51.739 40.829 53.239 42.154 55.864 46.802 55.864 47.552 52.864 50.177 51.489 53.052 52.614 55.427 48.364 53.87 45.739 53.052 42.625 55.927 39.974 53.87 36.989 50.177 37.864 48.177 36.114 46.055 32.864 40.829 32.864 40.829 36.364 38.51 37.364 35.302 36.614 33.552 38.926" style="fill: #d8d8e4"/>
          <circle cx="44.22368" cy="44.3643" r="2.58333" style="fill: #404041"/>
          <path d="M80.73909,36.6768a11.12956,11.12956,0,0,0-.80353,1.6875c.116,0,2.116,1.6097,2.116,1.6097l-2.12616,2.3278,1.36031,3.3125,1.89085-1.15818,2.43277,1.40818v1.87236l3.12973-.49736.3125-1.6875,2.9375-.625,1.75-1.5-.875-2.375.5625-3.6875-1.8125-2-1.5.5-1.85395-1.64692-.77105-1.35308-1.5625.375-1.5,1.875-2.25.1875-1.6875,1.0625" style="fill: #d8d8e4"/>
          <polygon points="51.343 86.698 42.772 95.804 46.549 99.581 56.218 90.364 51.343 86.698" style="fill: #04e6ce"/>
          <polygon points="55.063 90.445 46.492 99.551 50.269 103.328 59.938 94.111 55.063 90.445" style="fill: #f33562"/>
          <g>
            <path d="M99.12095,63.21308a5.37969,5.37969,0,0,0-2.79938-3.1008,5.46672,5.46672,0,0,0-.98314-.35352,1.32515,1.32515,0,0,0-.2264-1.57l-6.13028-6.13492a1.32574,1.32574,0,0,0-.93715-.38864h-.00026a1.3254,1.3254,0,0,0-.93715.38824l-1.93182,1.93182A21.664,21.664,0,0,0,79.8978,51.7982V49.06205a1.32544,1.32544,0,0,0-1.32539-1.32539H69.89924a1.32544,1.32544,0,0,0-1.32539,1.32539v2.73628a21.65251,21.65251,0,0,0-5.27757,2.18711l-1.93182-1.93181a1.325,1.325,0,0,0-1.87455.00039L53.35949,58.189a1.32527,1.32527,0,0,0,.00027,1.874l1.92969,1.9297a21.664,21.664,0,0,0-2.187,5.27757H50.37574a1.32555,1.32555,0,0,0-1.32539,1.32619l.00477,8.673a1.32528,1.32528,0,0,0,1.32539,1.3246h1.5962l-1.445,1.445a4.48159,4.48159,0,0,0,.07476,6.41195l-7.67412,7.67386a1.32542,1.32542,0,1,0,1.87429,1.87455L52.63311,88.173l2.28705,1.92877L47.85565,97.1661A1.32542,1.32542,0,1,0,49.73,99.04065l7.2237-7.2237,2.24981,1.89735-3.456,3.45643a1.32542,1.32542,0,1,0,1.8743,1.87456l3.66891-3.669a1.31907,1.31907,0,0,0,.80181.04613L87.95036,88.782a1.3242,1.3242,0,0,0,.86212-.704L98.88222,67.38356A5.37919,5.37919,0,0,0,99.12095,63.21308ZM51.705,75.94314,51.7018,69.921h2.44413a1.32531,1.32531,0,0,0,1.29583-1.0469,19.05216,19.05216,0,0,1,2.63567-6.36105,1.32521,1.32521,0,0,0-.17589-1.65664l-1.731-1.731,4.25666-4.25984,1.73232,1.73246a1.32576,1.32576,0,0,0,1.65664.176,19.05064,19.05064,0,0,1,6.36106-2.63594,1.32528,1.32528,0,0,0,1.0469-1.29583v-2.4546h6.02212v2.45473a1.32543,1.32543,0,0,0,1.0469,1.29584,19.04982,19.04982,0,0,1,6.36092,2.63593,1.32559,1.32559,0,0,0,1.65664-.176l1.73246-1.73246,4.25652,4.25984L90.72786,60.6975a5.41479,5.41479,0,0,0-1.51229,1.79144l-8.15183,15.484H77.537A4.8587,4.8587,0,0,0,73.209,70.904H65.79357a8.68063,8.68063,0,0,1,11.38757-6.152,1.3254,1.3254,0,1,0,.89752-2.49424A11.32965,11.32965,0,0,0,63.08725,70.904h-.289a7.511,7.511,0,0,0-5.346,2.21428l-2.825,2.825H51.705Zm23.71322-.17961a2.21165,2.21165,0,0,1-2.20912,2.20912H70.121v-4.418h3.08807A2.21159,2.21159,0,0,1,75.4182,75.76353Zm-7.948-2.20885v4.418H64.23834l-1.95873-4.3904a4.988,4.988,0,0,1,.51881-.02757Zm-5.375,19.13009-2.282-1.92453,7.6085-4.50492a4.7158,4.7158,0,0,1,5.73885.7236L75.43967,89.258Zm34.40356-26.461L86.69734,86.36692l-8.28068,2.12654c-.02213-.02585-.04427-.05156-.06866-.076l-3.313-3.313a7.36455,7.36455,0,0,0-8.96386-1.12988l-8.40395,4.976L52.52017,84.61a1.832,1.832,0,0,1-.11426-2.69612l6.921-6.921a4.9799,4.9799,0,0,1,.48859-.42721l1.97821,4.434-1.7306,1.73047a1.32542,1.32542,0,0,0,1.87455,1.87429l1.981-1.981H81.86435a1.32557,1.32557,0,0,0,1.17282-.70809l.934-1.77422,2.26743,1.30935a1.32547,1.32547,0,1,0,1.32566-2.29567l-2.35718-1.36118L88.29354,69.931l2.11142.99533a1.32545,1.32545,0,1,0,1.13054-2.39773l-2.00592-.94563,2.032-3.85966a2.76836,2.76836,0,0,1,.63307-.79889,1.324,1.324,0,0,0,.24907-.19419l.00278-.00279a2.76857,2.76857,0,0,1,4.05226,3.49634Z"/>
            <path d="M41.76581,97.1653a1.32405,1.32405,0,1,0,.38851.937A1.33207,1.33207,0,0,0,41.76581,97.1653Z"/>
            <path d="M82.24783,64.907l-.05687-.05633a1.3255,1.3255,0,1,0-1.85984,1.88913l.04228.04176A1.32547,1.32547,0,0,0,82.24783,64.907Z"/>
            <path d="M44.22386,39.974A4.48213,4.48213,0,1,0,48.706,44.45612,4.48741,4.48741,0,0,0,44.22386,39.974Zm-.00014,6.31347a1.83135,1.83135,0,1,1,1.83135-1.83135A1.83345,1.83345,0,0,1,44.22372,46.28747Z"/>
            <path d="M56.442,46.97873l-1.79489-1.62125c.02572-.29983.03871-.60112.03871-.90109s-.013-.60139-.03871-.90109L56.442,41.93405a1.32525,1.32525,0,0,0,.25888-1.6471l-2.63249-4.55171a1.32511,1.32511,0,0,0-1.55484-.59768l-2.29753.74256a10.42127,10.42127,0,0,0-1.56147-.90295l-.50595-2.36248a1.32524,1.32524,0,0,0-1.296-1.04822H41.59481a1.32531,1.32531,0,0,0-1.296,1.04769l-.50609,2.36248a10.43159,10.43159,0,0,0-1.56133.90295L35.93377,35.137a1.32533,1.32533,0,0,0-1.55484.59768l-2.63249,4.55185a1.32541,1.32541,0,0,0,.25887,1.64709L33.8002,43.5549c-.02571.29983-.0387.60113-.0387.90109s.013.60139.0387.90109l-1.79489,1.62165a1.32541,1.32541,0,0,0-.25887,1.64709l2.63236,4.55172a1.325,1.325,0,0,0,1.55483.59768l2.29767-.74256a10.42586,10.42586,0,0,0,1.56133.90295l.50622,2.36248a1.32539,1.32539,0,0,0,1.296,1.04769h5.25782a1.32532,1.32532,0,0,0,1.296-1.04769l.50595-2.36248a10.42686,10.42686,0,0,0,1.56147-.90295l2.29753.74256a1.325,1.325,0,0,0,1.55484-.59768l2.63248-4.55172A1.32519,1.32519,0,0,0,56.442,46.97873Zm-4.50161-3.74235a7.88529,7.88529,0,0,1,0,2.43949,1.326,1.326,0,0,0,.42112,1.18873l1.50818,1.36224L52.31,50.92349l-1.933-.62472a1.326,1.326,0,0,0-1.24162.23117,7.79189,7.79189,0,0,1-2.10851,1.21935,1.32581,1.32581,0,0,0-.82024.95941l-.42549,1.98617H42.6665L42.241,52.7087a1.32533,1.32533,0,0,0-.82024-.95941,7.794,7.794,0,0,1-2.10851-1.21935,1.32552,1.32552,0,0,0-1.24175-.2313l-1.933.62471L34.578,48.227,36.0862,46.8646a1.32608,1.32608,0,0,0,.42112-1.18873,7.88529,7.88529,0,0,1,0-2.43949,1.326,1.326,0,0,0-.42112-1.18873L34.578,40.68527l1.55961-2.69651,1.933.62472a1.32548,1.32548,0,0,0,1.24162-.23117A7.78918,7.78918,0,0,1,41.42077,37.163a1.32583,1.32583,0,0,0,.82024-.95941l.42549-1.98617h3.11472l.42549,1.98617a1.32534,1.32534,0,0,0,.82023.95941,7.78978,7.78978,0,0,1,2.10851,1.21935,1.326,1.326,0,0,0,1.24162.23117l1.933-.62472L53.87,40.68527l-1.50818,1.36224A1.32572,1.32572,0,0,0,51.94039,43.23638Z"/>
            <path d="M95.03488,41.50034l-.96869-.875q.00975-.1865.00968-.373,0-.1863-.00968-.373l.96869-.87511a1.32541,1.32541,0,0,0,.25888-1.64723L93.618,34.46a1.32512,1.32512,0,0,0-1.55484-.59768l-1.23923.40044a7.09868,7.09868,0,0,0-.64686-.37406l-.273-1.27462a1.3257,1.3257,0,0,0-1.2961-1.04756H85.2614a1.3253,1.3253,0,0,0-1.296,1.04769l-.27306,1.27462a7.09779,7.09779,0,0,0-.64686.37407l-1.23923-.40044a1.325,1.325,0,0,0-1.55484.59768L78.576,37.35715a1.32542,1.32542,0,0,0,.25887,1.6471l.96856.87511q-.00973.18669-.00967.373,0,.1861.00967.373l-.96856.875a1.3256,1.3256,0,0,0-.25887,1.64723l1.67559,2.89706a1.32472,1.32472,0,0,0,1.55484.59768l1.23923-.40044a7.09769,7.09769,0,0,0,.64686.37406l.27306,1.27463a1.32539,1.32539,0,0,0,1.296,1.04769h3.34655a1.32533,1.32533,0,0,0,1.296-1.04769l.273-1.27463a7.09634,7.09634,0,0,0,.64686-.37406l1.23923.40044a1.325,1.325,0,0,0,1.55484-.59768l1.67573-2.89706A1.32543,1.32543,0,0,0,95.03488,41.50034Zm-3.66467-1.94945a4.54662,4.54662,0,0,1,0,1.40347,1.32511,1.32511,0,0,0,.421,1.18886l.67085.60589L91.8592,43.791l-.85987-.278a1.32643,1.32643,0,0,0-1.24175.23131,4.47821,4.47821,0,0,1-1.21166.70093,1.32579,1.32579,0,0,0-.82023.95942l-.18929.8832H86.33309l-.18929-.8832a1.32511,1.32511,0,0,0-.82023-.95928,4.47982,4.47982,0,0,1-1.21179-.70094,1.32519,1.32519,0,0,0-1.24175-.2313l-.85987.278-.60272-1.042.67072-.60589a1.3256,1.3256,0,0,0,.42125-1.18847,4.54268,4.54268,0,0,1,0-1.40452,1.325,1.325,0,0,0-.42112-1.1882l-.67071-.6059.60271-1.042.85987.278a1.325,1.325,0,0,0,1.24175-.2313,4.47807,4.47807,0,0,1,1.2118-.70094,1.32617,1.32617,0,0,0,.82023-.95928l.18915-.8832H87.5364l.18929.8832a1.3253,1.3253,0,0,0,.82023.95941,4.47587,4.47587,0,0,1,1.21166.70094,1.32654,1.32654,0,0,0,1.24175.2313l.85987-.278.60285,1.04186-.67085.6059A1.325,1.325,0,0,0,91.37021,39.55089Z"/>
            <path d="M87.87176,39.31482a1.32612,1.32612,0,1,0,.38838.937A1.33546,1.33546,0,0,0,87.87176,39.31482Z"/>
          </g>
        </g>
        <text transform="translate(32.10187 120.87447)" style="font-size: 10.47299861907959px;font-family: AzoSans-Bold, Azo Sans;font-weight: 700">Mechat<tspan x="36.50781" y="0" style="letter-spacing: -0.0049420241883454665em">r</tspan><tspan x="40.65527" y="0" style="letter-spacing: 0.00009324573940274464em">onics</tspan></text>
      </g>
    </g>
  </g>
</svg>
