<svg xmlns="http://www.w3.org/2000/svg" viewBox="0 0 131 131">
  <title>Asset 17</title>
  <g id="89237b95-548c-4c35-8ba1-4bee2e85c71e" data-name="Layer 2">
    <g id="7706fa73-d8e6-4752-8bb8-19dcca323953" data-name="Layer 1">
      <g>
        <g>
          <rect width="131" height="131" style="fill: #404041"/>
          <polygon points="55.351 86.183 74.851 86.183 77.851 74.366 84.664 60.814 82.434 46.6 72.851 38.948 58.351 38.044 53.351 42.6 46.352 53.555 48.142 65.183 52.434 75.016 56.017 84.516 55.351 86.183" style="fill: #fced38"/>
          <polygon points="56.101 87.35 56.601 98.016 74.851 98.016 74.851 86.183 56.101 87.35" style="fill: #d8d8e4"/>
          <g>
            <path d="M39.085,53.5551H33.15907a1.64675,1.64675,0,1,0,0,3.29349h5.9258A1.64675,1.64675,0,1,0,39.085,53.5551Z"/>
            <path d="M97.84094,53.5551H91.915a1.64675,1.64675,0,1,0,0,3.29349h5.92594a1.64675,1.64675,0,0,0,0-3.29349Z"/>
            <path d="M45.86942,74.83223a1.64684,1.64684,0,0,0-2.32892,0l-4.31031,4.31031A1.64675,1.64675,0,1,0,41.559,81.47146l4.31044-4.31031A1.64684,1.64684,0,0,0,45.86942,74.83223Z"/>
            <path d="M88.75512,31.94679a1.64684,1.64684,0,0,0-2.32892,0L82.23395,36.139a1.6467,1.6467,0,0,0,2.32892,2.32866L88.755,34.27558A1.64682,1.64682,0,0,0,88.75512,31.94679Z"/>
            <path d="M48.76379,36.13665l-4.19-4.18986a1.6468,1.6468,0,1,0-2.32892,2.32893l4.19,4.19a1.64684,1.64684,0,0,0,2.32892-2.329Z"/>
            <path d="M91.76954,79.14306l-4.29435-4.29475a1.6468,1.6468,0,0,0-2.32892,2.32892l4.29448,4.29449a1.64666,1.64666,0,0,0,2.32879-2.32866Z"/>
            <path d="M65.50007,35.93642c-11.38709,0-20.65106,9.69022-20.65106,21.60126a28.95856,28.95856,0,0,0,5.44213,16.35311,20.72306,20.72306,0,0,1,4.06009,11.9976V96.242a3.29727,3.29727,0,0,0,3.29349,3.29349H73.35554A3.29727,3.29727,0,0,0,76.649,96.242V85.88839a20.7249,20.7249,0,0,1,4.05983-11.9976,28.95833,28.95833,0,0,0,5.44226-16.35311C86.15085,45.62664,76.88688,35.93642,65.50007,35.93642ZM73.35528,96.2423H57.64446V94.08835h7.85547a1.64675,1.64675,0,1,0,0-3.29349H57.64446V88.641H73.35567l.00187,7.601ZM63.19069,65.51893l-2.20222-4.70478H70.0114l-2.202,4.70478a1.65071,1.65071,0,0,0-.15183.589l-1.277,19.23963H64.61939l-1.277-19.23963A1.65033,1.65033,0,0,0,63.19069,65.51893ZM78.02628,71.98a24.11184,24.11184,0,0,0-4.66422,13.36753H69.68141l1.24191-18.71287,3.16838-6.76926a1.64673,1.64673,0,0,0-1.49146-2.34488H58.39949A1.64666,1.64666,0,0,0,56.908,59.86528l3.16851,6.76925,1.24191,18.71288H57.63754a24.11043,24.11043,0,0,0-4.66422-13.36754A25.96144,25.96144,0,0,1,48.1421,57.53755c0-10.095,7.78661-18.30777,17.35757-18.30777S82.85723,47.4425,82.85723,57.53755A25.95837,25.95837,0,0,1,78.02628,71.98Z"/>
          </g>
        </g>
        <text transform="translate(30.55696 119.57165)" style="font-size: 10.47299861907959px;font-family: AzoSans-Bold, Azo Sans;font-weight: 700">Mis<tspan x="17.1543" y="0" style="letter-spacing: -0.0029838636608878286em">c</tspan><tspan x="22.48535" y="0">ellaneous</tspan></text>
      </g>
    </g>
  </g>
</svg>
