<?xml version="1.0" encoding="utf-8"?>
<!-- Generator: Adobe Illustrator 19.1.0, SVG Export Plug-In . SVG Version: 6.00 Build 0)  -->
<svg version="1.1" id="Layer_1" xmlns="http://www.w3.org/2000/svg" xmlns:xlink="http://www.w3.org/1999/xlink" x="0px" y="0px"
	 viewBox="0 0 243.6 321.4" style="enable-background:new 0 0 243.6 321.4;" xml:space="preserve">
<style type="text/css">
	.st0{fill:#39363C;}
	.st1{fill:#FFFFFF;}
	.st2{fill:#00AEB3;}
</style>
<g>
	<circle class="st0" cx="121.8" cy="199.6" r="121.8"/>
	<path class="st1" d="M27.3,251.2h190.5C217.8,251.2,130.4,373.4,27.3,251.2z"/>
	<path class="st2" d="M41.4,258.6c0,0,67.9,92.7,167.2,0C208.6,258.6,120.5,337.3,41.4,258.6z"/>
	<path class="st0" d="M162.9,111.6c0,5-4,9-9,9H90.3c-5,0-9-4-9-9V24c0-5,4-9,9-9h63.5c5,0,9,4,9,9V111.6z"/>
	<path class="st0" d="M177.8,16c0,5-4,9-9,9H74.5c-5,0-9-4-9-9V9c0-5,4-9,9-9h94.3c5,0,9,4,9,9V16z"/>
	<g>
		<path class="st1" d="M27.3,251.2c0,0,16.9-3.8,16.9-12.1c0,0,1,13.1,11.2,13.1"/>
		<path class="st1" d="M43.8,251.2c0,0,16.9-3.8,16.9-12.1c0,0,1,13.1,11.2,13.1"/>
		<path class="st1" d="M60.1,251.2c0,0,16.9-3.8,16.9-12.1c0,0,1,13.1,11.2,13.1"/>
	</g>
	<g>
		<path class="st1" d="M76,251.2c0,0,16.9-3.8,16.9-12.1c0,0,1,13.1,11.2,13.1"/>
		<path class="st1" d="M92.5,251.2c0,0,16.9-3.8,16.9-12.1c0,0,1,13.1,11.2,13.1"/>
		<path class="st1" d="M108.8,251.2c0,0,16.9-3.8,16.9-12.1c0,0,1,13.1,11.2,13.1"/>
	</g>
	<g>
		<path class="st1" d="M124.4,251.2c0,0,16.9-3.8,16.9-12.1c0,0,1,13.1,11.2,13.1"/>
		<path class="st1" d="M140.9,251.2c0,0,16.9-3.8,16.9-12.1c0,0,1,13.1,11.2,13.1"/>
		<path class="st1" d="M157.2,251.2c0,0,16.9-3.8,16.9-12.1c0,0,1,13.1,11.2,13.1"/>
	</g>
	<g>
		<path class="st1" d="M172,251.2c0,0,16.9-3.8,16.9-12.1c0,0,1,13.1,11.2,13.1"/>
		<path class="st1" d="M188.6,251.2c0,0,16.9-3.8,16.9-12.1c0,0,1,13.1,11.2,13.1"/>
	</g>
	<g>
		<circle class="st1" cx="140.8" cy="142.7" r="12.9"/>
		<path class="st2" d="M151.8,138.7c0,0-0.4,22.5-19.8,12C132,150.7,148.1,155.9,151.8,138.7z"/>
	</g>
	<g>
		<circle class="st1" cx="108.2" cy="104.5" r="5.4"/>
		<path class="st2" d="M112.9,102.8c0,0-0.2,9.4-8.3,5C104.6,107.9,111.3,110.1,112.9,102.8z"/>
	</g>
	<g>
		<circle class="st1" cx="143.8" cy="108.6" r="9.5"/>
		<path class="st2" d="M152,105.7c0,0-0.3,16.6-14.7,8.9C137.3,114.5,149.2,118.4,152,105.7z"/>
	</g>
	<g>
		<circle class="st1" cx="103" cy="39" r="3.2"/>
		<path class="st2" d="M105.7,38c0,0-0.1,5.5-4.9,3C100.8,41,104.8,42.3,105.7,38z"/>
	</g>
</g>
<g>
	<path class="st1" d="M24,205.6h12.5c2.9,0,5.1,0.7,6.5,2.2c1.5,1.5,2.2,3.6,2.2,6.2c0,2.7-0.7,4.7-2.2,6.2s-3.7,2.2-6.5,2.2h-8.7
		v11.7H24V205.6z M27.8,219.3h7.4c2.2,0,3.7-0.4,4.7-1.3c1-0.9,1.5-2.2,1.5-3.9c0-1.7-0.5-3-1.5-3.9c-1-0.9-2.6-1.3-4.7-1.3h-7.4
		V219.3z"/>
	<path class="st1" d="M49.9,205.6h13.4c2.7,0,4.8,0.7,6.4,2s2.3,3.2,2.3,5.5c0,1.7-0.4,3.3-1.2,4.6s-2,2.2-3.8,2.7v0.1
		c0.8,0.2,1.5,0.4,2,0.8s0.9,0.8,1.2,1.3c0.3,0.5,0.5,1.1,0.7,1.7c0.1,0.6,0.3,1.3,0.3,2c0.1,0.7,0.1,1.4,0.1,2.1
		c0,0.7,0.1,1.4,0.2,2.1c0.1,0.7,0.3,1.4,0.5,2c0.2,0.6,0.5,1.2,0.9,1.7h-4.2c-0.3-0.3-0.4-0.7-0.5-1.2c-0.1-0.5-0.2-1.1-0.2-1.7
		c0-0.6-0.1-1.3-0.1-2c0-0.7-0.1-1.4-0.2-2.1c-0.1-0.7-0.2-1.4-0.4-2s-0.4-1.2-0.8-1.6c-0.3-0.5-0.8-0.8-1.4-1.1
		c-0.6-0.3-1.3-0.4-2.2-0.4h-9.3v12.2h-3.8V205.6z M61.6,218.8c0.9,0,1.7-0.1,2.5-0.2c0.8-0.1,1.5-0.4,2.1-0.8
		c0.6-0.4,1.1-0.9,1.4-1.6c0.4-0.7,0.5-1.5,0.5-2.5c0-1.4-0.4-2.6-1.2-3.5c-0.8-0.9-2.1-1.4-3.9-1.4h-9.4v10H61.6z"/>
	<path class="st1" d="M75.7,219.9c0-1.9,0.3-3.8,0.9-5.6c0.6-1.8,1.4-3.4,2.6-4.8s2.6-2.5,4.3-3.3c1.7-0.8,3.7-1.2,6-1.2
		c2.3,0,4.3,0.4,6,1.2c1.7,0.8,3.1,1.9,4.3,3.3s2,3,2.6,4.8c0.6,1.8,0.9,3.7,0.9,5.6c0,1.9-0.3,3.8-0.9,5.6s-1.4,3.4-2.6,4.8
		c-1.1,1.4-2.6,2.5-4.3,3.3c-1.7,0.8-3.7,1.2-6,1.2c-2.3,0-4.3-0.4-6-1.2c-1.7-0.8-3.1-1.9-4.3-3.3c-1.1-1.4-2-3-2.6-4.8
		S75.7,221.8,75.7,219.9z M79.5,219.9c0,1.4,0.2,2.9,0.6,4.3c0.4,1.4,1,2.7,1.8,3.8c0.8,1.1,1.8,2,3.1,2.7c1.3,0.7,2.7,1,4.5,1
		c1.7,0,3.2-0.3,4.5-1c1.3-0.7,2.3-1.6,3.1-2.7c0.8-1.1,1.4-2.4,1.8-3.8c0.4-1.4,0.6-2.8,0.6-4.3s-0.2-2.9-0.6-4.3
		c-0.4-1.4-1-2.7-1.8-3.8c-0.8-1.1-1.8-2-3.1-2.7c-1.3-0.7-2.7-1-4.5-1c-1.7,0-3.2,0.3-4.5,1c-1.3,0.7-2.3,1.6-3.1,2.7
		c-0.8,1.1-1.4,2.4-1.8,3.8C79.7,217,79.5,218.4,79.5,219.9z"/>
	<path class="st1" d="M122.2,227c0,1-0.1,1.9-0.4,2.8c-0.3,0.9-0.7,1.8-1.4,2.5c-0.7,0.7-1.5,1.3-2.6,1.8c-1.1,0.4-2.4,0.7-4,0.7
		c-2.7,0-4.7-0.7-6.2-2.1c-1.4-1.4-2.2-3.5-2.2-6.2v-1.8h3.8v1.2c0,0.8,0.1,1.6,0.2,2.3s0.4,1.3,0.7,1.8c0.3,0.5,0.8,0.9,1.4,1.2
		c0.6,0.3,1.4,0.4,2.3,0.4c1.7,0,2.9-0.5,3.6-1.4c0.7-0.9,1-2.2,1-3.8v-20.9h3.8V227z"/>
	<path class="st1" d="M128.5,205.6h19.7v3.2h-15.9v9.1h14.8v3.2h-14.8v9.9h16v3.2h-19.8V205.6z"/>
	<path class="st1" d="M173,214.2c-0.4-2-1.4-3.5-2.8-4.6c-1.5-1-3.2-1.5-5.2-1.5c-1.7,0-3.2,0.3-4.4,1c-1.2,0.6-2.2,1.5-3,2.6
		c-0.8,1.1-1.4,2.3-1.7,3.7s-0.6,2.8-0.6,4.3c0,1.6,0.2,3.2,0.6,4.6s1,2.7,1.7,3.8c0.8,1.1,1.8,1.9,3,2.6s2.7,1,4.4,1
		c1.3,0,2.4-0.2,3.3-0.6c1-0.4,1.8-1,2.5-1.7c0.7-0.7,1.3-1.6,1.7-2.6c0.4-1,0.6-2.1,0.7-3.3h3.8c-0.4,3.6-1.6,6.4-3.7,8.4
		c-2.1,2-5,3-8.6,3c-2.2,0-4.1-0.4-5.8-1.1c-1.7-0.8-3-1.8-4.1-3.1c-1.1-1.3-1.9-2.9-2.5-4.7c-0.5-1.8-0.8-3.8-0.8-5.8
		c0-2.1,0.3-4,0.9-5.9s1.4-3.4,2.6-4.8c1.1-1.4,2.5-2.4,4.2-3.2c1.7-0.8,3.6-1.2,5.8-1.2c1.5,0,2.9,0.2,4.2,0.6
		c1.3,0.4,2.5,1,3.6,1.8s1.9,1.7,2.6,2.9c0.7,1.2,1.1,2.5,1.4,4H173z"/>
	<path class="st1" d="M188.3,208.8h-9.5v-3.2h22.8v3.2h-9.5v25.4h-3.8V208.8z"/>
	<path class="st1" d="M221.3,214c-0.2-2.1-1-3.5-2.2-4.5s-2.9-1.4-4.9-1.4c-0.8,0-1.6,0.1-2.4,0.2c-0.8,0.2-1.5,0.4-2.1,0.8
		s-1.1,0.9-1.4,1.5c-0.4,0.6-0.5,1.4-0.5,2.3c0,0.9,0.3,1.6,0.8,2.1c0.5,0.5,1.2,1,2.1,1.3c0.9,0.3,1.8,0.6,2.9,0.9
		c1.1,0.2,2.2,0.5,3.3,0.7c1.1,0.3,2.2,0.6,3.3,0.9c1.1,0.4,2.1,0.8,2.9,1.5c0.9,0.6,1.6,1.4,2.1,2.3c0.5,0.9,0.8,2.1,0.8,3.5
		c0,1.5-0.3,2.8-1,3.9s-1.6,2-2.6,2.6s-2.3,1.2-3.6,1.5c-1.3,0.3-2.6,0.5-3.9,0.5c-1.6,0-3.1-0.2-4.5-0.6c-1.4-0.4-2.7-1-3.8-1.8
		c-1.1-0.8-1.9-1.9-2.6-3.1c-0.6-1.3-0.9-2.8-0.9-4.5h3.6c0,1.2,0.2,2.2,0.7,3.1s1.1,1.6,1.8,2.1c0.8,0.6,1.6,1,2.7,1.2
		c1,0.3,2.1,0.4,3.1,0.4c0.9,0,1.7-0.1,2.6-0.2c0.9-0.2,1.6-0.4,2.3-0.8c0.7-0.4,1.3-0.9,1.7-1.6c0.4-0.7,0.6-1.5,0.6-2.6
		c0-1-0.3-1.8-0.8-2.4c-0.5-0.6-1.2-1.1-2.1-1.5c-0.9-0.4-1.8-0.7-2.9-0.9c-1.1-0.2-2.2-0.5-3.3-0.7s-2.2-0.5-3.3-0.9
		c-1.1-0.3-2.1-0.8-2.9-1.3c-0.9-0.5-1.6-1.3-2.1-2.1c-0.5-0.9-0.8-2-0.8-3.3c0-1.4,0.3-2.7,0.9-3.7c0.6-1.1,1.4-1.9,2.3-2.6
		c1-0.7,2.1-1.2,3.3-1.5c1.2-0.3,2.5-0.5,3.8-0.5c1.5,0,2.8,0.2,4.1,0.5c1.3,0.3,2.4,0.9,3.3,1.6c0.9,0.7,1.7,1.7,2.2,2.8
		c0.5,1.1,0.8,2.5,0.9,4.1H221.3z"/>
</g>
</svg>
