<svg xmlns="http://www.w3.org/2000/svg" viewBox="0 0 131 131">
  <title>Asset 13</title>
  <g id="de674b64-c5e4-4329-915e-a9b9f747b5f3" data-name="Layer 2">
    <g id="96796f9f-dcff-4dc6-b2fa-e5b1d94d6ad2" data-name="Layer 1">
      <g>
        <g>
          <rect width="131" height="131" style="fill: #404041"/>
          <rect x="37.96277" y="34.83656" width="11.25" height="12.625" style="fill: #fff"/>
          <rect x="37.96277" y="51.13835" width="11.25" height="12.625" style="fill: #fff"/>
          <rect x="37.3723" y="67.88121" width="11.25" height="12.625" style="fill: #fff"/>
          <rect x="37.96277" y="83.41604" width="11.25" height="12.625" style="fill: #fff"/>
          <g>
            <g>
              <path d="M37.62677,48.63892H49.54484a1.45147,1.45147,0,0,0,1.45147-1.45147V35.27338a1.45148,1.45148,0,0,0-1.45147-1.45147H37.62677a1.45147,1.45147,0,0,0-1.45147,1.45147V47.18745A1.45146,1.45146,0,0,0,37.62677,48.63892Zm1.53194-12.23439h8.85218a.40079.40079,0,0,1,.4008.4008v8.85218a.4008.4008,0,0,1-.4008.4008H39.15871a.40081.40081,0,0,1-.4008-.4008V36.80533A.4008.4008,0,0,1,39.15871,36.40453Z"/>
              <path d="M37.62677,64.86135H49.54484a1.45147,1.45147,0,0,0,1.45147-1.45147V51.49181a1.45147,1.45147,0,0,0-1.45147-1.45147H37.62677a1.45146,1.45146,0,0,0-1.45147,1.45147V63.40988A1.45146,1.45146,0,0,0,37.62677,64.86135ZM39.64293,52.625h7.88375a.885.885,0,0,1,.885.885v7.88175a.885.885,0,0,1-.885.885H39.64293a.885.885,0,0,1-.885-.885V53.51A.885.885,0,0,1,39.64293,52.625Z"/>
              <path d="M37.62677,81.01572H49.54484a1.45148,1.45148,0,0,0,1.45147-1.45147V67.64617a1.45148,1.45148,0,0,0-1.45147-1.45147H37.62677a1.45147,1.45147,0,0,0-1.45147,1.45147V79.56425A1.45147,1.45147,0,0,0,37.62677,81.01572Zm2.03084-12.2384H47.512a.8997.8997,0,0,1,.89969.89969V77.5314a.8997.8997,0,0,1-.89969.8997H39.65761a.8997.8997,0,0,1-.8997-.8997V69.677A.8997.8997,0,0,1,39.65761,68.77732Z"/>
              <path d="M37.62677,97.17809H49.54484a1.45148,1.45148,0,0,0,1.45147-1.45147V83.80854a1.45147,1.45147,0,0,0-1.45147-1.45146H37.62677a1.45146,1.45146,0,0,0-1.45147,1.45146V95.72662A1.45147,1.45147,0,0,0,37.62677,97.17809Zm1.95578-12.2384h8.00451a.82463.82463,0,0,1,.82463.82464v8.00451a.82463.82463,0,0,1-.82463.82463H39.58255a.82463.82463,0,0,1-.82464-.82463V85.76433A.82464.82464,0,0,1,39.58255,84.93969Z"/>
              <rect x="54.96833" y="36.80093" width="38.88539" height="2.90294" rx="1.45147" ry="1.45147"/>
              <rect x="54.96833" y="41.96416" width="27.91428" height="2.90494" rx="1.45147" ry="1.45147"/>
              <rect x="54.96833" y="52.13246" width="38.88539" height="2.90294" rx="1.45147" ry="1.45147"/>
              <rect x="54.96833" y="57.29569" width="27.91428" height="2.90294" rx="1.45147" ry="1.45147"/>
              <rect x="55.93531" y="68.74729" width="38.88939" height="2.90494" rx="1.45147" ry="1.45147"/>
              <rect x="55.93531" y="73.91252" width="27.91628" height="2.90494" rx="1.45147" ry="1.45147"/>
              <rect x="55.93531" y="84.56531" width="38.88939" height="2.90294" rx="1.45147" ry="1.45147"/>
              <rect x="55.93531" y="89.72854" width="27.91628" height="2.90494" rx="1.45147" ry="1.45147"/>
            </g>
            <rect x="34.81992" y="72.15274" width="17.53176" height="2.90494" rx="1.45247" ry="1.45247" transform="translate(-39.28076 52.37828) rotate(-45)" style="fill: #f33562"/>
            <rect x="37.52291" y="56.18238" width="16.57248" height="2.90494" rx="1.45247" ry="1.45247" transform="translate(-27.3368 49.27281) rotate(-45)" style="fill: #04e6ce"/>
            <rect x="34.81992" y="72.15274" width="17.53176" height="2.90494" rx="1.45247" ry="1.45247" transform="translate(22.35888 156.47177) rotate(-135)" style="fill: #f33562"/>
            <rect x="35.74842" y="59.51564" width="7.1446" height="2.90494" rx="1.45247" ry="1.45247" transform="translate(24.01375 131.88303) rotate(-135.00004)" style="fill: #04e6ce"/>
          </g>
        </g>
        <text transform="translate(43.64292 120.87453)" style="font-size: 10.47299861907959px;font-family: AzoSans-Bold, Azo Sans;font-weight: 700">Quizzing</text>
      </g>
    </g>
  </g>
</svg>
