<svg xmlns="http://www.w3.org/2000/svg" viewBox="0 0 131 131">
  <title>Asset 14</title>
  <g id="85df3fd8-e6c5-435d-b7af-09df15f9bcc1" data-name="Layer 2">
    <g id="ef8e9b62-6ce2-4702-b4f8-59ee4204135b" data-name="Layer 1">
      <g>
        <g>
          <rect width="131" height="131" style="fill: #404041"/>
          <g>
            <g>
              <path d="M60.4199,100.214h0a4.51566,4.51566,0,0,0-4.51565-4.51564h0A4.51566,4.51566,0,0,0,51.3886,100.214h9.0313Z" style="fill: #d8d8e4"/>
              <path d="M79.6114,100.214h0a4.51566,4.51566,0,0,0-4.51565-4.51564h0A4.51566,4.51566,0,0,0,70.5801,100.214h9.0313Z" style="fill: #d8d8e4"/>
            </g>
            <g>
              <rect x="53.08197" y="73.75516" width="5.64456" height="21.94322" style="fill: #4dbaf6"/>
              <rect x="72.27347" y="73.75516" width="5.64456" height="21.94322" style="fill: #4dbaf6"/>
              <path d="M56.29062,40.40429h1.87145V35.1159H56.29062a2.64413,2.64413,0,0,0-2.64419,2.64419h0A2.64414,2.64414,0,0,0,56.29062,40.40429Z" style="fill: #4dbaf6"/>
              <path d="M74.70938,35.1159H72.83793v5.28839h1.87145a2.64414,2.64414,0,0,0,2.64419-2.6442h0A2.64414,2.64414,0,0,0,74.70938,35.1159Z" style="fill: #4dbaf6"/>
            </g>
            <rect x="58.16207" y="30.78596" width="14.67585" height="14.67585" style="fill: #d8d8e4"/>
            <g>
              <rect x="62.67772" y="45.46181" width="5.64456" height="4.51565" style="fill: #4dbaf6"/>
              <path d="M49.69524,73.75531H53.082V49.97746H49.69524a2.25774,2.25774,0,0,0-2.25783,2.25782v19.2622A2.25784,2.25784,0,0,0,49.69524,73.75531Z" style="fill: #4dbaf6"/>
              <path d="M81.30476,73.75531H77.918V49.97746h1.12891a4.51567,4.51567,0,0,1,4.51565,4.51565V71.49748A2.25784,2.25784,0,0,1,81.30476,73.75531Z" style="fill: #4dbaf6"/>
              <path d="M53.082,78.271H49.69524a2.25774,2.25774,0,0,1-2.25783-2.25782h0a2.25774,2.25774,0,0,1,2.25783-2.25782H53.082Z" style="fill: #4dbaf6"/>
              <path d="M83.56259,76.01313h0A2.25774,2.25774,0,0,1,81.30476,78.271H77.918V73.75531h3.38673A2.25774,2.25774,0,0,1,83.56259,76.01313Z" style="fill: #4dbaf6"/>
            </g>
            <rect x="53.08197" y="49.97746" width="24.83606" height="23.70715" style="fill: #d8d8e4"/>
            <circle cx="65.51835" cy="61.83103" r="6.77347" style="fill: #4dbaf6"/>
            <g>
              <circle cx="55.90425" cy="84.6915" r="3.95119" style="fill: #fff"/>
              <circle cx="75.09575" cy="84.6915" r="3.95119" style="fill: #fff"/>
            </g>
            <path d="M57.33331,61.831a8.18461,8.18461,0,1,0,8.18461-8.18461A8.19394,8.19394,0,0,0,57.33331,61.831Zm13.54694,0a5.36233,5.36233,0,1,1-5.36233-5.36233A5.36845,5.36845,0,0,1,70.88025,61.831Z"/>
            <path d="M56.90193,85.68917a1.41041,1.41041,0,1,0-.99768.41347A1.4218,1.4218,0,0,0,56.90193,85.68917Z"/>
            <path d="M76.09343,85.68917a1.41041,1.41041,0,1,0-.99768.41347A1.4218,1.4218,0,0,0,76.09343,85.68917Z"/>
            <path d="M93.72279,98.80289H80.85136a5.92475,5.92475,0,0,0-1.52219-2.73112V87.97691a5.34517,5.34517,0,0,0,0-6.57084v-1.724h1.97559a3.66588,3.66588,0,0,0,2.88875-5.92678,3.64969,3.64969,0,0,0,.78022-2.25783V54.49311a5.93348,5.93348,0,0,0-5.92679-5.92679H69.73342V46.873h3.10451a1.41112,1.41112,0,0,0,1.41114-1.41114V41.81543h.46031a4.05534,4.05534,0,0,0,0-8.11067h-.46031V30.786a1.41112,1.41112,0,0,0-1.41114-1.41114H58.16207A1.41112,1.41112,0,0,0,56.75093,30.786v2.9188h-.46031a4.05534,4.05534,0,0,0,0,8.11067h.46031v3.64638A1.41112,1.41112,0,0,0,58.16207,46.873h3.10451v1.69337H49.69524a3.6732,3.6732,0,0,0-3.669,3.669v19.2622a3.64975,3.64975,0,0,0,.78022,2.25783,3.66588,3.66588,0,0,0,2.88875,5.92678h1.97559v1.724a5.34517,5.34517,0,0,0,0,6.57084v8.09486a5.92221,5.92221,0,0,0-1.5222,2.73112h-7.756a1.41114,1.41114,0,1,0,0,2.82228h51.3302a1.41115,1.41115,0,0,0,0-2.82229Zm-42.052-34.714H49.01309a1.40718,1.40718,0,0,0-.16454.01044V60.12736a1.40718,1.40718,0,0,0,.16454.01045h2.65774Zm-2.82228,7.40862V66.90069a1.40718,1.40718,0,0,0,.16454.01045h2.65774v5.433H49.69524A.84754.84754,0,0,1,48.84855,71.49748ZM54.49311,78.271v-3.1752h2.82228V79.519a5.34073,5.34073,0,0,0-2.82228,0ZM53.3642,84.6915a2.54005,2.54005,0,1,1,2.54005,2.54A2.543,2.543,0,0,1,53.3642,84.6915Zm2.54005,5.36233a5.34634,5.34634,0,0,0,1.41114-.1898v4.59425a5.902,5.902,0,0,0-2.82228,0V89.864A5.34634,5.34634,0,0,0,55.90425,90.05383Zm4.23342,6.01794V87.97691a5.34517,5.34517,0,0,0,0-6.57084V75.09575H70.86233v6.31033a5.34515,5.34515,0,0,0,0,6.57083v8.09486a5.92211,5.92211,0,0,0-1.52219,2.73112H61.66A5.9251,5.9251,0,0,0,60.13767,96.07177ZM72.5557,84.6915a2.54005,2.54005,0,1,1,2.54,2.54A2.543,2.543,0,0,1,72.5557,84.6915Zm6.77347-17.78036h2.65774a1.40687,1.40687,0,0,0,.16453-.01045v4.59679a.84753.84753,0,0,1-.84668.84669h-1.9756v-5.433Zm2.82228-2.81184a1.40718,1.40718,0,0,0-.16454-.01044H79.32917v-3.9512h2.65774a1.40687,1.40687,0,0,0,.16453-.01044V64.0993ZM76.50689,78.271v1.248a5.34073,5.34073,0,0,0-2.82228,0V75.09575h2.82228ZM73.68461,89.864a5.34073,5.34073,0,0,0,2.82228,0v4.59425a5.902,5.902,0,0,0-2.82228,0Zm8.46684-13.8509a.84754.84754,0,0,1-.84669.84668H79.32917V75.16644h1.97559a.84754.84754,0,0,1,.84669.84669Zm0-21.52v2.83272a1.40718,1.40718,0,0,0-.16454-.01044H79.32917V51.4013A3.10875,3.10875,0,0,1,82.15145,54.49311ZM76.50689,72.27347H54.49311V51.3886H76.50689ZM74.70938,36.527a1.23306,1.23306,0,0,1,0,2.46611h-.46031V36.527ZM56.29062,38.99315a1.23306,1.23306,0,0,1,0-2.46611h.46031v2.46611Zm3.28259-6.79605H71.42679V44.05067H59.57321ZM64.08886,46.873h2.82228v1.69337H64.08886ZM49.69524,51.3886h1.97559v5.92679H49.01309a1.40718,1.40718,0,0,0-.16454.01044V52.23528A.84754.84754,0,0,1,49.69524,51.3886Zm0,25.47121a.84669.84669,0,1,1,0-1.69337h1.97559v1.69337ZM53.1394,98.80289a3.10385,3.10385,0,0,1,5.5297,0Zm19.19151,0a3.10383,3.10383,0,0,1,5.52968,0Z"/>
            <path d="M37.27721,98.80289a1.41168,1.41168,0,1,0,.99767.41347A1.42184,1.42184,0,0,0,37.27721,98.80289Z"/>
            <path d="M64.10721,61.831a1.41166,1.41166,0,1,0,.41346-.99767A1.41582,1.41582,0,0,0,64.10721,61.831Z"/>
            <path d="M62.60857,37.48887a1.41164,1.41164,0,1,1,.99768-.41346A1.4218,1.4218,0,0,1,62.60857,37.48887Z"/>
            <path d="M68.41965,37.48887a1.41164,1.41164,0,1,1,.99768-.41346A1.42184,1.42184,0,0,1,68.41965,37.48887Z"/>
            <path d="M67.15259,42.50688H63.84727a1.41114,1.41114,0,1,1,0-2.82227h3.30532a1.41114,1.41114,0,1,1,0,2.82227Z"/>
          </g>
        </g>
        <text transform="translate(43.72148 120.17977)" style="font-size: 10.47299861907959px;font-family: AzoSans-Bold, Azo Sans;font-weight: 700"><tspan style="letter-spacing: -0.016970724571299525em">R</tspan><tspan x="6.66113" y="0">obotics</tspan></text>
      </g>
    </g>
  </g>
</svg>
