<svg xmlns="http://www.w3.org/2000/svg" viewBox="0 0 131 131">
  <title>Asset 12</title>
  <g id="a8b9f48c-e2a2-4f2f-a339-ed97c1b8cca6" data-name="Layer 2">
    <g id="48e413cc-a6bb-49e8-b01b-92b459995ba4" data-name="Layer 1">
      <g>
        <g>
          <rect width="131" height="131" style="fill: #404041"/>
          <g>
            <polygon points="43.249 81.664 40.624 89.959 41.457 90.772 62.916 90.772 63.624 88.772 60.624 81.313 58.249 82.313 55.124 81.313 53.541 79.813 49.874 80.472 47.999 82.063 44.749 81.813 43.249 81.664" style="fill: #04e6ce"/>
            <path d="M64.81154,70.4176l3.75,2.1875,2.8125.5625,3.5625-2.1875,2.7461-.3125,2.8164,1.75,3,1.3125,3.6875-2.8125,1.5625-.5,1.625,6-.9375,5.875-3.3125,5-7.625,3.75-7.6875-1.5-.56465.52806S64.2548,72.07338,64.2642,71.15827,64.81154,70.4176,64.81154,70.4176Z" style="fill: #f33562"/>
            <g>
              <path d="M83.377,60.45589V46.0369a2.8222,2.8222,0,0,0-.31359-5.627H70.51947a2.8222,2.8222,0,0,0-.3136,5.627V60.45615a18.22384,18.22384,0,0,0-7.35149,5.27258.94075.94075,0,1,0,1.441,1.20974,16.33053,16.33053,0,0,1,7.15907-4.93679.94071.94071,0,0,0,.633-.889v-15.058h5.33117a.9408.9408,0,0,0,0-1.88159H70.51947a.94079.94079,0,1,1,0-1.88158H83.06339a.94079.94079,0,1,1,0,1.88158H81.1818a.9408.9408,0,0,0,0,1.88159h.3136V61.11257a.94077.94077,0,0,0,.633.889A16.31032,16.31032,0,1,1,70.65845,92.52783a.94072.94072,0,1,0-.7081,1.74311A18.19206,18.19206,0,1,0,83.377,60.45589Z"/>
              <circle cx="83.80261" cy="80.72299" r="0.94079"/>
              <circle cx="80.03943" cy="84.48617" r="0.94079"/>
              <path d="M71.47783,88.78a.94079.94079,0,1,0-.79805,1.704A14.42877,14.42877,0,0,0,89.28594,70.20114a.93973.93973,0,0,0-.94393-.46061l-.34245.04767a.93335.93335,0,0,0-.1272.02672,7.22639,7.22639,0,0,0-2.80557,1.51468,3.18729,3.18729,0,0,1-2.43553.91069,3.10491,3.10491,0,0,1-2.3072-1.02722,4.9534,4.9534,0,0,0-7.06625.00012,3.1039,3.1039,0,0,1-2.3067,1.0271A3.18656,3.18656,0,0,1,68.516,71.3296a7.22635,7.22635,0,0,0-2.8052-1.51468.9187.9187,0,0,0-.12732-.02672l-.34245-.04767a.93953.93953,0,0,0-.94268.45848l-.02471.04415a.94075.94075,0,0,0,.96814,1.39715l.01568.00226a5.38749,5.38749,0,0,1,2.08028,1.15416,5.251,5.251,0,0,0,7.14641-.15642,3.10423,3.10423,0,0,1,4.6139.00012,5.25215,5.25215,0,0,0,7.147.15643,5.525,5.525,0,0,1,1.74235-1.04429A12.548,12.548,0,0,1,71.47783,88.78Z"/>
              <path d="M58.72818,60.95452V42.27372a2.8222,2.8222,0,0,0-.3136-5.627H45.87065a2.8222,2.8222,0,0,0-.31359,5.627v15.0758a.94079.94079,0,0,0,1.88158,0v-15.058h5.33117a.9408.9408,0,1,0,0-1.88159H45.87065a.9408.9408,0,0,1,0-1.88159H58.41458a.9408.9408,0,1,1,0,1.88159H56.533a.9408.9408,0,0,0,0,1.88159h.3136V61.1127a.93962.93962,0,0,0,.05168.30745L66.04141,87.857a4.104,4.104,0,0,1-4.17713,5.86478H42.4212A4.10394,4.10394,0,0,1,38.244,87.8571l9.14314-26.4367a.94081.94081,0,1,0-1.77823-.61515L36.46559,87.242a5.9672,5.9672,0,0,0,5.95548,8.36128H61.86416A5.9672,5.9672,0,0,0,67.81964,87.242L58.72818,60.95452Z"/>
              <path d="M44.12981,80.3971a.94078.94078,0,0,0-1.46576.4359l-2.642,7.63913a2.26246,2.26246,0,0,0,2.399,3.368H61.86416a2.26244,2.26244,0,0,0,2.3989-3.368l-2.64213-7.63937A.94068.94068,0,0,0,60.1553,80.397a3.01955,3.01955,0,0,1-2.173.70259,3.10517,3.10517,0,0,1-2.30721-1.02723,4.9534,4.9534,0,0,0-7.06624.00013,3.104,3.104,0,0,1-2.30683,1.0271,3.01943,3.01943,0,0,1-2.17223-.70246Zm5.70535,1.10223a3.10425,3.10425,0,0,1,4.61391.00013A4.94424,4.94424,0,0,0,57.98232,82.981a5.356,5.356,0,0,0,2.24411-.42386l2.25841,6.53a1.811,1.811,0,0,1,.12769.74774,1.81108,1.81108,0,0,1-.74837.12368H42.42108a1.81108,1.81108,0,0,1-.74837-.12368,1.81064,1.81064,0,0,1,.12769-.74774l2.25829-6.52974a5.35311,5.35311,0,0,0,2.24348.42373,4.94439,4.94439,0,0,0,3.533-1.48181Z"/>
            </g>
          </g>
        </g>
        <text transform="translate(46.66447 121.00745)" style="font-size: 10.47299861907959px;font-family: AzoSans-Bold, Azo Sans;font-weight: 700">Scien<tspan x="26.46484" y="0" style="letter-spacing: -0.0029838636608878286em">c</tspan><tspan x="31.7959" y="0">e</tspan></text>
      </g>
    </g>
  </g>
</svg>
