<svg xmlns="http://www.w3.org/2000/svg" viewBox="0 0 131 131">
  <title>Asset 15</title>
  <g id="ce096d19-e751-4337-9960-531f83a74e61" data-name="Layer 2">
    <g id="080862b3-190c-493f-84ad-a3360c965e1a" data-name="Layer 1">
      <g>
        <g>
          <rect width="131" height="131" style="fill: #404041"/>
          <polygon points="71.798 52.351 71.798 41.976 73.118 37.965 93.687 37.965 93.687 62.632 85.604 62.84 83.108 67.549 80.036 63.586 75.573 63.535 71.798 52.351" style="fill: #f33562"/>
          <polygon points="59.202 52.351 59.202 41.976 57.882 37.965 37.313 37.965 37.313 62.632 45.396 62.84 47.892 67.549 50.964 63.586 55.427 63.535 59.202 52.351" style="fill: #fced38"/>
          <polygon points="55.229 53.183 55.229 76.82 63.041 77.57 65.5 82.507 67.916 77.757 75.729 77.632 76.104 53.183 75.666 52.257 56.541 52.257 55.229 53.183" style="fill: #04e6ce"/>
          <polygon points="58.77 73.424 60.883 69.09 63.687 67.34 67.854 67.549 71.198 70.378 71.798 73.84 58.77 73.424" style="fill: #fff"/>
          <path d="M76.01012,59.28922a8.43108,8.43108,0,0,1,1.19781-3.803,8.3387,8.3387,0,0,1,1.85419-2.125l2.08331-.60416,4.16669.20874,3.34454,2.82956.6,3.46213Z" style="fill: #fff"/>
          <path d="M54.97413,59.45589a8.431,8.431,0,0,0-1.19781-3.803,8.33835,8.33835,0,0,0-1.85419-2.125l-2.08331-.60416-4.16669.20874L42.32759,55.962l-.6,3.46213Z" style="fill: #fff"/>
          <polygon points="64.198 56.32 61.791 58.632 62.729 62.288 66.041 63.632 69.229 61.007 69.229 58.101 67.291 56.476 64.135 55.624 64.198 56.32" style="fill: #fff"/>
          <polygon points="81.795 41.583 79.389 43.895 80.327 47.552 83.639 48.895 86.826 46.27 86.826 43.364 84.889 41.739 81.733 40.887 81.795 41.583" style="fill: #fff"/>
          <polygon points="46.58 41.583 44.174 43.895 45.112 47.552 48.424 48.895 51.611 46.27 51.611 43.364 49.674 41.739 46.517 40.887 46.58 41.583" style="fill: #fff"/>
          <rect x="37.31289" y="86.5083" width="35.80476" height="6.74875" style="fill: #d8d8e4"/>
          <rect x="73.11765" y="86.42799" width="20.56933" height="6.74875" style="fill: #4dbaf6"/>
          <g>
            <path d="M38.565,63.58571h6.25611L47.067,68.07777a.92281.92281,0,0,0,1.65083,0l2.246-4.49206h.45824a.92288.92288,0,1,0,0-1.84575H50.39353a.92251.92251,0,0,0-.82542.51017l-1.67569,3.35126-1.67558-3.35126a.92294.92294,0,0,0-.82541-.51017H38.565a.13606.13606,0,0,1-.136-.13584V38.565a.13618.13618,0,0,1,.136-.136H57.21985a.1362.1362,0,0,1,.13609.136v10.0047a.92288.92288,0,1,0,1.84575,0V38.565a1.984,1.984,0,0,0-1.98184-1.98171H38.565A1.984,1.984,0,0,0,36.58327,38.565V61.604A1.98393,1.98393,0,0,0,38.565,63.58571Z"/>
            <path d="M47.89254,40.27476a4.61665,4.61665,0,1,0,4.61659,4.61659A4.62174,4.62174,0,0,0,47.89254,40.27476Zm0,7.38743a2.77084,2.77084,0,1,1,2.77084-2.77084A2.774,2.774,0,0,1,47.89254,47.66219Z"/>
            <path d="M47.89254,53.19944a5.75681,5.75681,0,0,1,3.05717.87488.92284.92284,0,1,0,.97911-1.56458,7.61906,7.61906,0,0,0-11.65406,6.4616.92283.92283,0,0,0,.92288.92288H51.4221a.92288.92288,0,1,0,0-1.84575H42.19422a5.78147,5.78147,0,0,1,5.69832-4.849Z"/>
            <path d="M92.43514,36.58327h-18.655A1.984,1.984,0,0,0,71.79831,38.565v10.0047a.92288.92288,0,1,0,1.84575,0V38.565a.1362.1362,0,0,1,.13609-.136H92.435a.13607.13607,0,0,1,.13585.136V61.604a.136.136,0,0,1-.13585.13585H85.60845A.92274.92274,0,0,0,84.783,62.25l-1.67557,3.35127L81.43176,62.25a.92285.92285,0,0,0-.82542-.51016H79.57789a.92288.92288,0,0,0,0,1.84575h.45824l2.246,4.49206a.92283.92283,0,0,0,1.65084,0l2.246-4.49206h6.2561a1.98389,1.98389,0,0,0,1.9816-1.9816V38.565A1.984,1.984,0,0,0,92.43514,36.58327Z"/>
            <path d="M83.10758,40.27476a4.61665,4.61665,0,1,0,4.61659,4.61659A4.62185,4.62185,0,0,0,83.10758,40.27476Zm0,7.38743a2.7709,2.7709,0,1,1,2.77084-2.771A2.7741,2.7741,0,0,1,83.10758,47.66219Z"/>
            <path d="M78.655,58.97134a.92273.92273,0,0,0,.92288.92287H89.80236a.92273.92273,0,0,0,.92288-.92287A7.619,7.619,0,0,0,79.0713,52.50986a.92284.92284,0,1,0,.97911,1.56458,5.77426,5.77426,0,0,1,8.75549,3.97415H79.578a.92273.92273,0,0,0-.923.92275Z"/>
            <path d="M54.19073,53.31929V76.35842A1.9839,1.9839,0,0,0,56.17244,78.34h6.25611l2.24591,4.49207a.92283.92283,0,0,0,1.65084,0l2.246-4.49207h6.256A1.9839,1.9839,0,0,0,76.809,76.35842V53.31929a1.98391,1.98391,0,0,0-1.98172-1.9816H56.17244A1.98383,1.98383,0,0,0,54.19073,53.31929Zm20.77267,0V76.35842a.13606.13606,0,0,1-.136.13584H68.00111a.92251.92251,0,0,0-.82542.51017L65.5,80.3557l-1.67557-3.35127a.923.923,0,0,0-.82542-.51016H56.17257a.13607.13607,0,0,1-.136-.13585V53.31929a.13607.13607,0,0,1,.136-.13585H74.82743a.13591.13591,0,0,1,.136.13585Z"/>
            <path d="M65.5,64.26224a4.61665,4.61665,0,1,0-4.61659-4.61671A4.62192,4.62192,0,0,0,65.5,64.26224Zm0-7.38743a2.7709,2.7709,0,1,1-2.77084,2.77084A2.77406,2.77406,0,0,1,65.5,56.87481Z"/>
            <path d="M58.8051,74.64864H72.19478a.92274.92274,0,0,0,.92287-.92287,7.61772,7.61772,0,0,0-15.23543,0,.92289.92289,0,0,0,.92288.92287ZM65.5,67.95374a5.78167,5.78167,0,0,1,5.69832,4.849H59.8018a5.78124,5.78124,0,0,1,5.6982-4.849Z"/>
            <path d="M83.52682,90.78676a.9844.9844,0,1,0-.9844-.9844A.98555.98555,0,0,0,83.52682,90.78676Z"/>
            <path d="M78.48177,90.78676a.9844.9844,0,1,0-.9844-.9844A.98555.98555,0,0,0,78.48177,90.78676Z"/>
            <path d="M88.57186,90.78676a.9844.9844,0,1,0-.9844-.9844A.98554.98554,0,0,0,88.57186,90.78676Z"/>
            <path d="M93.49386,85.188H37.50614a.92281.92281,0,0,0-.92287.92287v7.383a.92281.92281,0,0,0,.92287.92287H93.49386a.92273.92273,0,0,0,.92287-.92287v-7.383A.92273.92273,0,0,0,93.49386,85.188ZM38.429,87.03374H72.57537V92.571H38.429ZM92.571,92.571H74.42112V87.03374H92.571Z"/>
          </g>
        </g>
        <text transform="translate(50.87454 120.17977)" style="font-size: 10.47299861907959px;font-family: AzoSans-Bold, Azo Sans;font-weight: 700">Social</text>
      </g>
    </g>
  </g>
</svg>
